# xmcd
#
# Track frame offsets:
#	150
#	12446
#	28724
#	41523
#	57066
#	66267
#	81027
#	93658
#	107899
#	119559
#	134820
#	151492
#	173413
#	201301
#	219084
#	228152
#	239725
#	253391
#	269077
#	292443
#	301066
#	311214
#	321933
#
# Disc length: 4511 seconds
#
# Revision: 1
# Processed by: cddbd v1.5.2PL0 Copyright (c) Steve Scherf et al.
# Submitted via: audiograbber 1.83.01
#
DISCID=63119d17
DTITLE=—борник - The Best Of Counry Music CD2
DYEAR=2008
DGENRE=Country
TTITLE0=John Michael Montgomery - Love Is Our Business
TTITLE1=Ricky Scaggs - Lovis Gonna Get You Someday
TTITLE2=Jeff Carson - Definite Possibilities
TTITLE3=BR5 - 49 - That is What I Get
TTITLE4=Derailer - Ellen
TTITLE5=Montgomery Gentry - Ramblin Man
TTITLE6=The Mavericks - Watch Over Me
TTITLE7=Randy Scruggs - Lonesom Ruben
TTITLE8=John Michael Montgomery - Sold
TTITLE9=Confederater Railroad - Queen Of Memphis
TTITLE10=Vinse Gill - Oklahoma
TTITLE11=Earl Scruggs And Friends - Foggy Mountain Breakdown
TTITLE12=The Tractors - I Wouldn it Tell You No Lie
TTITLE13=Hank Williams III - Cocaine Blues
TTITLE14=The Best Farmers - I Want You, Too
TTITLE15=Tracy Byrd - Holdin Heaven
TTITLE16=Jonh Brack - I ve Been Going Home Since Friday Night
TTITLE17=Billi D. Hunter - Dealing With Yhe Devil
TTITLE18=Rodney Crowel - Preachin To Choir
TTITLE19=Johnny Western - Rawhide
TTITLE20=Tim Mc.Graw - You Can Take It With You  (When You Go)
TTITLE21=Red Simpson - Truck Drivin Man
TTITLE22=Dwight Yoakam - Please, Please Baby
EXTD=
EXTT0=
EXTT1=
EXTT2=
EXTT3=
EXTT4=
EXTT5=
EXTT6=
EXTT7=
EXTT8=
EXTT9=
EXTT10=
EXTT11=
EXTT12=
EXTT13=
EXTT14=
EXTT15=
EXTT16=
EXTT17=
EXTT18=
EXTT19=
EXTT20=
EXTT21=
EXTT22=
PLAYORDER=
